# xmcd CD database file
#
# Track frame offsets:
#	150
#	13550
#	36399
#	55483
#	73691
#	87774
#
# Disc length: 1299 seconds
#
# Revision: 0
# Processed by: cddbd v1.5.1PL2 Copyright (c) Steve Scherf et al.
# Submitted via: CDex 1.51
#
DISCID=4b051106
DTITLE=A-studio - Take a step forward - Raagnarok Online Arrange Soundtrack 2
DYEAR=2005
DGENRE=Game
TTITLE0=龍の城 〜The Great〜
TTITLE1=潮風に吹かれて〜Everlasting Wanderers〜
TTITLE2=君を護る翼〜Through the tower〜
TTITLE3=首都でのひととき〜Theme of Prontera〜
TTITLE4=High - Sprited Guardian Heart 〜Wanna Be Free!!〜
TTITLE5=「アインハザード」を兄貴がモミジで粉砕 〜Steel Me〜
EXTD=YEAR: 2005/12/30
EXTT0=
EXTT1=
EXTT2=
EXTT3=
EXTT4=
EXTT5=
PLAYORDER=
